# xmcd
#
# Track frame offsets:
#	150
#	24714
#	41752
#	63974
#	80464
#	99046
#	115792
#	133933
#	152126
#	172006
#	191846
#	209152
#
# Disc length: 3026
#
# Revision: 3
# Processed by: cddbd v1.5.2PL0 Copyright (c) Steve Scherf et al.
# Submitted via: Broken X Disk Manager 4.02.2262
#
DISCID=a90bd00c
DTITLE=Валерия - Глаза цвета неба
DYEAR=0
DGENRE=
TTITLE0=не обижай меня
TTITLE1=Рига - Москва
TTITLE2=таю
TTITLE3=не обманывай
TTITLE4=обручальная
TTITLE5=больше чем жизнь
TTITLE6=с ангелом
TTITLE7=метелица
TTITLE8=ты где-то там
TTITLE9=мальчики не плачут
TTITLE10=давным-давно
TTITLE11=песня для тебя - Ïåñíÿ äëÿ òåáÿ
EXTD=
EXTT0=
EXTT1=
EXTT2=
EXTT3=
EXTT4=
EXTT5=
EXTT6=
EXTT7=
EXTT8=
EXTT9=
EXTT10=
EXTT11=
PLAYORDER=
